<?xml version="1.0" encoding="UTF-8" standalone="no"?>
<!-- Created with Inkscape (http://www.inkscape.org/) -->

<svg
   xmlns:dc="http://purl.org/dc/elements/1.1/"
   xmlns:cc="http://creativecommons.org/ns#"
   xmlns:rdf="http://www.w3.org/1999/02/22-rdf-syntax-ns#"
   xmlns:svg="http://www.w3.org/2000/svg"
   xmlns="http://www.w3.org/2000/svg"
   xmlns:sodipodi="http://sodipodi.sourceforge.net/DTD/sodipodi-0.dtd"
   xmlns:inkscape="http://www.inkscape.org/namespaces/inkscape"
   version="1.0"
   width="264.3876"
   height="133.80469"
   viewBox="0 0 2032.3551 451.31916"
   id="Layer_1"
   xml:space="preserve"
   inkscape:version="0.48.2 r9819"
   sodipodi:docname="HGI-ltblue.svg"
   inkscape:export-filename="/Users/jr17/HGI-white.37x19.png"
   inkscape:export-xdpi="12.74"
   inkscape:export-ydpi="12.74"><metadata
   id="metadata3043"><rdf:RDF><cc:Work
       rdf:about=""><dc:format>image/svg+xml</dc:format><dc:type
         rdf:resource="http://purl.org/dc/dcmitype/StillImage" /><dc:title></dc:title></cc:Work></rdf:RDF></metadata><sodipodi:namedview
   pagecolor="#000000"
   bordercolor="#666666"
   borderopacity="1"
   objecttolerance="10"
   gridtolerance="10"
   guidetolerance="10"
   inkscape:pageopacity="0"
   inkscape:pageshadow="2"
   inkscape:window-width="1213"
   inkscape:window-height="633"
   id="namedview3041"
   showgrid="false"
   inkscape:zoom="2.2566207"
   inkscape:cx="155.86575"
   inkscape:cy="76.23653"
   inkscape:window-x="329"
   inkscape:window-y="50"
   inkscape:window-maximized="0"
   inkscape:current-layer="Layer_1"
   fit-margin-top="0"
   fit-margin-left="0"
   fit-margin-right="0"
   fit-margin-bottom="0"><sodipodi:guide
     position="127.7973,-12.362682"
     orientation="0,70"
     id="guide3016" /><sodipodi:guide
     position="279.4905,36.653234"
     orientation="-77.580002,0"
     id="guide3018" /><sodipodi:guide
     position="13.643849,148.21352"
     orientation="0,-70"
     id="guide3020" /><sodipodi:guide
     position="-16.527343,42.099447"
     orientation="77.580002,0"
     id="guide3022" /></sodipodi:namedview><defs
   id="defs859" /><path
   inkscape:connector-curvature="0"
   d="m 1714.5702,489.1615 c -0.7763,-31.13046 1.2058,-55.62229 2.4434,-86.66254 0.2767,-6.73523 -7.149,-11.01493 -8.1252,-15.024 -6.5724,-27.11135 -21.9849,8.53933 -24.2449,18.11098 -3.6821,15.55521 -5.8498,33.15504 -5.7499,49.482 0.123,19.42394 -8.648,14.93871 -3.7129,33.92165"
   style="fill:#bcc5cd;stroke:#000000;stroke-width:3.79739218;fill-opacity:1;stroke-miterlimit:4;stroke-dasharray:none"
   id="path141"
   inkscape:export-filename="/Users/jr17/HGI-ltblue.60x30.png"
   inkscape:export-xdpi="20.42"
   inkscape:export-ydpi="20.42" /><path
   inkscape:connector-curvature="0"
   d="m 1682.0855,-283.35952 c -7.4907,41.04378 -5.3364,110.69851 56.8976,195.72925 61.5731,84.1103534 219.1495,133.151339 256.4239,206.67774 17.9338,35.36003 20.9395,-8.5293 21.5929,-23.853988 0.638,-14.9839 5.9421,-46.014132 -38.7042,-77.615651 -52.1565,-36.91354 -191.3609,-138.042411 -191.3609,-138.042411 0,0 -78.7538,-60.55925 -90.7426,-162.93294 m 294.126,725.11524 c 17.9338,35.36002 20.9395,-8.52931 21.5929,-23.864 0.638,-14.98393 5.942,-45.9941 -38.7042,-77.59563 -52.1565,-36.91353 -191.3609,-138.05242 -191.3609,-138.05242 0,0 -99.5009,-76.50314 -91.8524,-202.92925818 0,0 -56.8686,98.08197118 43.9007,235.76356818 61.5731,84.12037 219.1495,133.14133 256.4239,206.67774 z"
   style="fill:#bcc5cd;stroke:#000000;stroke-width:3.79739218;fill-opacity:1;stroke-miterlimit:4;stroke-dasharray:none"
   id="path133"
   inkscape:export-filename="/Users/jr17/HGI-ltblue.60x30.png"
   inkscape:export-xdpi="20.42"
   inkscape:export-ydpi="20.42" /><path
   inkscape:connector-curvature="0"
   d="m 1826.5845,62.309069 c 0,0 139.1659,7.737509 139.5657,7.757549 7.072,0.390879 20.655,-4.28971 20.778,-15.88595 0.2153,-21.458563 -32.9543,-17.329218 -43.2472,-17.900511 -18.3259,-1.062405 -36.6518,-2.124809 -54.9776,-3.167168 -5.1811,-0.290658 -68.5837,0.631428 -69.6445,-4.009074 l 7.5256,33.205154 z m 28.2806,-292.562109 139.6886,0 11.4845,0 c 0,0 3.8281,6.24412 8.1328,-10.604 4.3048,-16.84814 1.4375,-21.83943 1.4375,-21.83943 l -169.3452,-0.30067 8.6018,32.7441 z m -12.4377,62.38117 13.3985,-17.45951 104.2823,-24.95648 c 0,0 24.8752,16.2167 15.3125,28.69494 -9.5626,12.47824 -13.8751,6.86554 -13.8751,6.86554 l -105.8273,20.7269 -13.2909,-13.87139 z m 4.8044,291.32933 151.0425,-0.67152 10.093,13.15977 -10.4774,13.66092 -147.8215,4.36989 c 0,0 -10.5236,2.63597 -10.5236,-13.72105 0,-16.35701 7.687,-16.79801 7.687,-16.79801 z m -2.3061,84.26068 90.3995,-22.44078 -5.8345,23.5934 -19.133,14.96386 -61.3271,5.59265 c 0,-0.0104 -11.3076,-16.29688 -4.1049,-21.70913 z m 3.5053,-252.361124 c 10.9694,6.334335 67.7919,17.138788 54.0321,43.5485567 -9.5088,18.2613283 -40.1647,-8.6796432 -50.7343,-14.6531627 -6.0036,-3.387666 -13.0449,-5.90336 -18.5335,-10.333385 8.1483,-2.004537 10.2776,-16.17661 6.3956,-24.525505 2.8519,2.245082 5.8114,4.209527 8.8401,5.963496 z m -12.207,431.296094 c 0,0 123.7304,7.72747 124.084,7.75755 6.288,0.39088 18.3644,-4.29973 18.472,-15.88595 0.1921,-21.45858 -29.303,-17.32923 -38.4506,-17.91055 -16.2965,-1.05237 -32.5853,-2.11476 -48.8818,-3.15713 -4.6122,-0.30068 -60.9812,0.63142 -61.919,-4.00908 l 6.6954,33.20516 z m 18.4181,76.69356 135.7453,0 11.1615,0 c 0,0 3.7129,6.24413 7.9023,-10.61402 4.1817,-16.82808 1.3914,-21.8294 1.3914,-21.8294 l -164.564,-0.31071 8.3635,32.75413 z"
   style="fill:#457ab0;stroke:#000000;stroke-width:3.79739218000000012;fill-opacity:1;stroke-miterlimit:4;stroke-dasharray:none"
   id="path139"
   inkscape:export-filename="/Users/jr17/HGI-ltblue.60x30.png"
   inkscape:export-xdpi="20.42"
   inkscape:export-ydpi="20.42" /><path
   inkscape:connector-curvature="0"
   d="m 1696.0434,-230.25304 163.6107,0 c 0,0 8.1328,2.49565 8.1328,-10.604 0,-13.09965 -6.9336,-22.1401 -6.9336,-22.1401 l -173.4194,0 c -0.01,0 -10.5774,17.82032 8.6095,32.7441 z m 159.6749,76.24254 c -0.4843,1.96445 -15.9429,4.48014 -17.5341,4.93116 -12.9296,3.64826 -25.8592,7.29651 -38.7887,10.93475 -11.8534,3.33755 -23.5992,6.16395 -35.3681,9.1908 -7.9714,2.0346 -20.2399,9.55162 -26.0282,-2.08472 -2.9365,-5.91338 -3.244,-16.23674 3.7743,-21.62895 0,0 102.0991,-29.607 116.2125,-33.01471 l 2.6136,11.56617 c 0.01,0.01 -4.8813,20.09548 -4.8813,20.1055 z m -162.6421,209.133301 134.9227,7.517006 c 0,0 6.6185,2.876515 7.049,-10.223131 0.4228,-13.089625 -4.9966,-22.430764 -4.9966,-22.430764 l -143.0095,-7.968033 c 0.01,0 -9.2859,17.309172 6.0344,33.104922 z m 24.9674,103.845019 c 0,0 -15.3125,4.99129 -18.1798,-11.22542 -2.8749,-16.21668 8.6095,-16.21668 8.6095,-16.21668 l 150.2122,-8.73978 11.961,15.60531 -11.961,15.5953 -140.6419,4.98127 z m 63.149,87.32763 c 0,0 -11.4844,6.2341 -11.4844,-14.97387 0,-21.198 6.2188,-13.09967 6.2188,-13.09967 l 90.876,-13.75111 6.7185,8.75982 -9.5704,12.46822 -82.7585,20.59661 z m -11.1232,-311.063981 c -3.9742,-9.651843 1.5298,-20.606636 13.2679,-19.834889 24.1603,1.573561 42.4631,30.428864 65.6395,37.575037 6.0036,1.854197 -10.6389,16.28686 -12.2916,16.828085 -9.3243,3.026851 -14.6361,-0.922086 -23.038,-6.063722 -12.4376,-7.637286 -26.1897,-11.295564 -37.9124,-20.95743 -2.6828,-2.225036 -4.5507,-4.840956 -5.6654,-7.547081 z m -52.5562,444.235371 119.9561,7.517 c 0,0 5.896,2.8665 6.2726,-10.22313 0.3767,-13.09965 -4.4431,-22.43076 -4.4431,-22.43076 l -127.1511,-7.96803 c 0.01,0 -8.2559,17.30916 5.3655,33.10492 z m -17.2112,83.87983 158.9908,0 c 0,0 7.9022,2.49564 7.9022,-10.61402 0,-13.09965 -6.7415,-22.14011 -6.7415,-22.14011 l -168.5227,0 c 0,0.0104 -10.2699,17.82033 8.3712,32.75413 z"
   style="fill:#bcc5cd;stroke:#000000;stroke-width:3.79739218000000012;fill-opacity:1;stroke-miterlimit:4;stroke-dasharray:none"
   id="path135"
   inkscape:export-filename="/Users/jr17/HGI-ltblue.60x30.png"
   inkscape:export-xdpi="20.42"
   inkscape:export-ydpi="20.42" /><path
   inkscape:connector-curvature="0"
   d="m 1702.7479,-283.37547 c -9.481,24.25329 -15.6644,52.6281 -10.2175,79.73265 9.332,46.44511 51.0265,121.434822 51.0265,121.434822 0,0 -57.4068,-63.213062 -65.063,-144.717512 l 0,-56.45918 m 332.1977,-0.0189 c 2.2213,6.65736 1.6774,13.71554 -3.6926,20.71718 -10.8463,14.13198 -35.0989,28.99562 -66.977,49.07105 -31.8781,20.08542 -181.7829,112.27406 -212.4003,152.194405 -30.6175,39.920346 -43.3702,58.231787 -54.8547,114.76974 0,0 1.7219,33.846595 0,64.876815 0,0 8.8247,80.24161 61.135,116.82439 -0.01,-0.0104 -52.2103,-60.29645 -44.5617,-115.17063 0,0 -3.1902,-30.769638 45.2919,-93.982703 53.5709,-69.848076 207.9034,-159.771587 228.9889,-168.842117 106.5192,-45.72347 50.3885,-64.0249 65.0631,-119.74099 0,0 2.9617,-8.02265 -6.1204,-20.67769 m 1.8492,772.50649 c -0.1344,-13.60389 -0.2054,-26.33841 -0.2027,-41.00009 0.01,-24.9164 3.0671,-44.69114 -4.8966,-64.66635 -1.6835,-4.20953 -3.8435,-8.4391 -6.6339,-12.70877 -11.0002,-16.89824 -66.2853,-62.61168 -80.2219,-61.88003 52.2103,43.01734 74.3413,77.18468 76.1324,95.39589 1.7449,17.61988 -10.2084,33.51584 -14.6746,49.53209 -2.8826,10.33339 -1.4657,24.54846 -1.7501,35.3028 m -305.6945,-0.0104 c 0.1484,-5.7841 -3.2113,-7.19929 4.7679,-35.03228 2.6289,-9.17075 5.8652,-17.94061 9.8317,-26.16922 6.0958,-12.62857 14.2671,-24.11459 22.3385,-34.60832 27.4811,-35.75092 61.9344,-61.53928 97.9712,-79.64025 105.8811,-53.23047 159.4597,-101.46964 159.4597,-101.46964 0,0 38.2737,-31.60152 48.4821,-63.21306 0,0 -7.6563,-49.892912 0,-78.166902 0,0 -12.1609,-25.337339 -57.0147,-57.47006 0,0 35.3296,29.196074 35.3296,57.47006 0,28.27399 -36.3597,74.027522 -47.8364,74.027522 0,0 -198.3715,127.21793 -198.3715,127.22795 -12.9603,8.31882 -21.4622,23.38293 -32.2086,35.90125 -10.1238,11.79669 -20.5167,23.39295 -27.4658,38.85794 -8.7555,19.4841 -17.7955,39.17867 -23.4377,60.65729 -5.0965,19.42394 -8.3971,61.82811 -5.771,81.59585"
   style="fill:#bcc5cd;stroke:#000000;stroke-width:3.79739218;fill-opacity:1;stroke-miterlimit:4;stroke-dasharray:none"
   id="path149"
   inkscape:export-filename="/Users/jr17/HGI-ltblue.60x30.png"
   inkscape:export-xdpi="20.42"
   inkscape:export-ydpi="20.42" /><g
   style="font-size:307.48114014px;font-style:normal;font-weight:normal;line-height:125%;letter-spacing:0px;word-spacing:0px;fill:#bcc5cd;fill-opacity:1;stroke:#000000;stroke-width:0;stroke-linecap:round;stroke-linejoin:round;stroke-miterlimit:4;stroke-opacity:1;font-family:Sans"
   id="text2986"><path
     d="m 140.5285,31.858212 493.4712,0 0,-316.729602 140.5285,0 0,775.06869 -140.5285,0 0,-316.72961 -493.4712,0 0,316.72961 -140.5284969005585,0 0,-775.06869 140.5284969005585,0 0,316.729602"
     style="font-size:1106.93212891px;font-variant:normal;font-weight:bold;font-stretch:normal;text-align:start;line-height:125%;writing-mode:lr-tb;text-anchor:start;fill:#bcc5cd;stroke:#000000;font-family:Audiowide;-inkscape-font-specification:Audiowide Bold"
     id="path3826" /><path
     d="m 1555.0019,546.40869 c -7e-4,24.142 -3.0635,45.76174 -9.1884,64.85931 -6.1263,19.45765 -14.2337,36.39312 -24.3223,50.80645 -10.0899,14.77332 -21.8006,27.20468 -35.1321,37.2941 -13.3328,10.44934 -27.3857,18.91707 -42.1586,25.40323 -14.4137,6.48569 -29.1872,11.16997 -44.3205,14.05285 -14.774,3.24271 -28.8269,4.86419 -42.1585,4.86445 l -253.4918,0 0,-140.5285 253.4918,0 c 19.0969,-1.1e-4 33.3299,-4.86455 42.699,-14.59334 9.368,-9.72898 14.0523,-23.78182 14.0529,-42.15855 l 0,-443.74574 c -6e-4,-18.376395 -4.6849,-32.249066 -14.0529,-41.618051 -9.3691,-9.728457 -23.6021,-14.5929 -42.699,-14.593344 l -253.4918,0 c -17.2961,4.44e-4 -30.9886,5.40538 -41.0776,16.214826 -10.0894,10.449972 -15.134,23.782149 -15.1338,39.996569 l 0,190.25396 c -2e-4,18.37698 4.8642,32.42982 14.5933,42.15855 9.7287,9.72904 23.9617,14.59348 42.6991,14.59334 l 252.4108,0 0,140.5285 -253.4918,0 c -13.3324,0 -27.3853,-1.44132 -42.1586,-4.32396 -14.7737,-3.24296 -29.5472,-8.1074 -44.3205,-14.59334 -14.4133,-6.48591 -28.28599,-14.77348 -41.61804,-24.86273 -13.3323,-10.4495 -25.043,-22.88086 -35.13212,-37.2941 -10.08931,-14.77342 -18.19671,-31.70888 -24.32224,-50.80646 -6.12566,-19.45764 -9.18846,-41.25755 -9.1884,-65.3998 l 0,-190.25396 c -6e-5,-13.331787 1.44126,-27.384623 4.32395,-42.158546 3.2429,-14.773063 8.10735,-29.366392 14.59334,-43.78003 6.48585,-14.7730202 14.77342,-28.825855 24.86274,-42.158548 10.44944,-13.331661 22.8808,-25.042357 37.2941,-35.132123 14.77337,-10.088665 31.70887,-18.19607 50.80647,-24.322239 19.0972,-6.12502 40.717,-9.187818 64.8593,-9.188402 l 253.4918,0 c 13.3316,5.84e-4 27.3845,1.622065 42.1585,4.864448 15.1333,2.883212 29.9068,7.567491 44.3205,14.052849 14.7729,6.48649 28.8258,14.954224 42.1586,25.403228 13.3315,10.089755 25.0422,22.521109 35.1321,37.2941 10.0886,14.4136668 18.196,31.16897 24.3223,50.265961 6.1249,19.097895 9.1877,40.717641 9.1884,64.859302 l 0,443.74574"
     style="font-size:1106.93212891px;font-variant:normal;font-weight:bold;font-stretch:normal;text-align:start;line-height:125%;writing-mode:lr-tb;text-anchor:start;fill:#bcc5cd;stroke:#000000;font-family:Audiowide;-inkscape-font-specification:Audiowide Bold"
     id="path3828" /></g>

</svg>